<svg width="40" height="41" viewBox="0 0 40 41" fill="none" xmlns="http://www.w3.org/2000/svg">
<path fill-rule="evenodd" clip-rule="evenodd" d="M19.9705 20.6067V15.6875V11.6439C19.9705 11.0699 20.1998 10.5196 20.6075 10.1154L22.4291 8.3098L26.18 4.58047C27.5376 3.23071 29.8496 4.19231 29.8496 6.1067L26.18 15.9759L29.8496 25.2631C29.8496 27.1782 27.5361 28.1395 26.1789 26.7882L19.9705 20.6067ZM19.9705 20.6067V25.5516V29.6363C19.9705 30.2087 19.7424 30.7576 19.3368 31.1614L13.8218 36.6524C12.4646 38.0036 10.1511 37.0424 10.1511 35.1272L13.8218 25.5516L10.1511 15.9759C10.1511 14.0608 12.4646 13.0995 13.8218 14.4507L19.9705 20.5726V20.6067Z" fill="white"/>
</svg>
